<svg width="44" height="44" viewBox="0 0 44 44" fill="none" xmlns="http://www.w3.org/2000/svg">
<g filter="url(#filter0_d_4309_114441)">
<path d="M10 1.5H34C38.1421 1.5 41.5 4.85786 41.5 9V33C41.5 37.1421 38.1421 40.5 34 40.5H10C5.85786 40.5 2.5 37.1421 2.5 33V9C2.5 4.85786 5.85786 1.5 10 1.5Z" stroke="#EAECF0" shape-rendering="crispEdges"/>
<path d="M21.9998 21L22.5891 20.4107C22.2637 20.0853 21.736 20.0853 21.4106 20.4107L21.9998 21ZM21.1665 28.5C21.1665 28.9602 21.5396 29.3333 21.9998 29.3333C22.4601 29.3333 22.8332 28.9602 22.8332 28.5H21.1665ZM25.3049 16.5814L26.0229 16.1584L26.0229 16.1584L25.3049 16.5814ZM14.8986 24.7495C15.2235 25.0755 15.7511 25.0765 16.0771 24.7516C16.4032 24.4268 16.4041 23.8991 16.0793 23.5731L14.8986 24.7495ZM18.6665 24.3333L19.2558 24.9226L22.5891 21.5893L21.9998 21L21.4106 20.4107L18.0772 23.7441L18.6665 24.3333ZM21.9998 21L21.4106 21.5893L24.7439 24.9226L25.3332 24.3333L25.9224 23.7441L22.5891 20.4107L21.9998 21ZM21.9998 21H21.1665V28.5H21.9998H22.8332V21H21.9998ZM13.6665 19.75H14.4998C14.4998 16.7585 16.925 14.3333 19.9165 14.3333V13.5V12.6667C16.0045 12.6667 12.8332 15.838 12.8332 19.75H13.6665ZM19.9165 13.5V14.3333C21.9048 14.3333 23.6439 15.4041 24.587 17.0045L25.3049 16.5814L26.0229 16.1584C24.7926 14.0706 22.5189 12.6667 19.9165 12.6667V13.5ZM25.7498 16.8333V17.6667C27.8209 17.6667 29.4998 19.3456 29.4998 21.4167H30.3332H31.1665C31.1665 18.4251 28.7414 16 25.7498 16V16.8333ZM30.3332 21.4167H29.4998C29.4998 22.5809 28.9703 23.6207 28.1359 24.3098L28.6665 24.9524L29.1972 25.5949C30.3985 24.6027 31.1665 23.099 31.1665 21.4167H30.3332ZM15.489 24.1613L16.0793 23.5731C15.1023 22.5925 14.4998 21.2424 14.4998 19.75H13.6665H12.8332C12.8332 21.7011 13.6231 23.4693 14.8986 24.7495L15.489 24.1613ZM25.3049 16.5814L24.587 17.0045C24.833 17.4219 25.2801 17.6667 25.7498 17.6667V16.8333V16C25.8554 16 25.9618 16.0547 26.0229 16.1584L25.3049 16.5814Z" fill="#344054"/>
</g>
<defs>
<filter id="filter0_d_4309_114441" x="0" y="0" width="44" height="44" filterUnits="userSpaceOnUse" color-interpolation-filters="sRGB">
<feFlood flood-opacity="0" result="BackgroundImageFix"/>
<feColorMatrix in="SourceAlpha" type="matrix" values="0 0 0 0 0 0 0 0 0 0 0 0 0 0 0 0 0 0 127 0" result="hardAlpha"/>
<feOffset dy="1"/>
<feGaussianBlur stdDeviation="1"/>
<feComposite in2="hardAlpha" operator="out"/>
<feColorMatrix type="matrix" values="0 0 0 0 0.0627451 0 0 0 0 0.0941176 0 0 0 0 0.156863 0 0 0 0.05 0"/>
<feBlend mode="normal" in2="BackgroundImageFix" result="effect1_dropShadow_4309_114441"/>
<feBlend mode="normal" in="SourceGraphic" in2="effect1_dropShadow_4309_114441" result="shape"/>
</filter>
</defs>
</svg>
